#!OML:ASF F:\VICON\USERDATA\INSTALL\Justin_Nancy\Justin_Nancy.ASF
:FULLY-SPECIFIED
:DEGREES
435
root 1.41052 17.2917 22.4365 3.84797 11.057 -3.13621
lowerback 11.6824 1.79806 0.615523
upperback 0.468084 2.5563 1.30753
thorax -6.09648 1.25578 0.597963
lowerneck -16.5264 -7.73023 -11.9305
upperneck 14.6837 -9.72574 11.0649
head 8.4311 -4.26598 4.43143
rclavicle 1.25483e-015 2.68359e-014
rhumerus -27.6838 -7.20969 -81.331
rradius 57.3101
rwrist -2.89265
rhand -17.6363 13.2248
rfingers 7.12502
rthumb 8.62128 -16.5792
lclavicle 1.25483e-015 2.68359e-014
lhumerus -40.8052 24.5932 61.9148
lradius 37.9763
lwrist -2.60712
lhand -24.052 21.2148
lfingers 7.12502
lthumb 2.4271 51.1807
rfemur -5.09091 4.91589 22.7183
rtibia 46.8257
rfoot -5.38328 -9.30189
rtoes 15.8601
lfemur -26.2145 1.33138 -19.5174
ltibia 38.6734
lfoot -12.1917 -2.981
ltoes 0.6952
436
root 1.42717 17.297 22.525 3.79322 10.7593 -3.19846
lowerback 11.6041 1.90792 0.648289
upperback 0.458799 2.70499 1.29947
thorax -6.06179 1.32783 0.548672
lowerneck -16.239 -7.71217 -11.9278
upperneck 14.7326 -9.71929 10.9736
head 8.39055 -4.28049 4.40763
rclavicle -1.96921e-014 -2.33572e-014
rhumerus -28.1864 -7.53632 -81.6361
rradius 56.1258
rwrist -2.95078
rhand -17.6317 13.4477
rfingers 7.12502
rthumb 8.62581 -16.3561
lclavicle -1.96921e-014 -2.33572e-014
lhumerus -41.155 25.3824 61.9001
lradius 37.1534
lwrist -3.47249
lhand -24.3183 21.3074
lfingers 7.12502
lthumb 2.16999 51.2761
rfemur -5.42843 5.10231 22.6446
rtibia 47.5259
rfoot -5.31596 -9.51195
rtoes 16.8651
lfemur -25.8742 1.3145 -19.4461
ltibia 38.9474
lfoot -12.6407 -2.50751
ltoes 0.410351
437
root 1.43076 17.3103 22.6157 3.72212 10.3263 -3.18859
lowerback 11.4977 2.04708 0.337712
upperback 0.474716 2.85224 1.37595
thorax -6.00586 1.41026 0.78282
lowerneck -15.9626 -7.59587 -11.8759
upperneck 14.7556 -9.55494 10.7316
head 8.31281 -4.23143 4.34676
rclavicle 6.26669e-014 1.41137e-014
rhumerus -28.5528 -7.61256 -81.8849
rradius 54.7806
rwrist -3.04005
rhand -17.3859 13.2977
rfingers 7.12502
rthumb 8.86296 -16.4962
lclavicle 6.26669e-014 1.41137e-014
lhumerus -41.624 26.0942 62.0226
lradius 36.4675
lwrist -3.49767
lhand -24.8922 21.0268
lfingers 7.12502
lthumb 1.61567 51.0004
rfemur -5.77656 5.46391 22.5934
rtibia 48.1902
rfoot -5.35611 -10.2013
rtoes 16.4908
lfemur -25.3899 1.28502 -19.4281
ltibia 38.8833
lfoot -12.8534 -1.74774
ltoes -0.564252
438
root 1.42955 17.318 22.7011 3.53543 9.77463 -3.31686
lowerback 11.4737 2.18975 0.0699921
upperback 0.556356 3.01418 1.51788
thorax -5.93055 1.49928 1.05757
lowerneck -15.8584 -7.47538 -11.7305
upperneck 14.8265 -9.37502 10.4033
head 8.27079 -4.1714 4.23957
rclavicle -3.08862e-014 -1.63003e-014
rhumerus -28.9296 -7.69345 -82.1141
rradius 53.5813
rwrist -2.98898
rhand -17.209 13.6616
rfingers 7.12502
rthumb 9.03366 -16.1249
lclavicle -3.08862e-014 -1.63003e-014
lhumerus -41.9352 26.6506 62.3709
lradius 35.8405
lwrist -2.94241
lhand -25.5075 22.3493
lfingers 7.12502
lthumb 1.02142 52.3266
rfemur -5.97402 5.82864 22.706
rtibia 48.6273
rfoot -5.28759 -11.0322
rtoes 14.7063
lfemur -24.6433 1.23254 -19.257
ltibia 38.4967
lfoot -13.1046 -0.911835
ltoes -1.66989
439
root 1.44779 17.3279 22.7891 3.55207 9.38716 -3.17175
lowerback 11.351 2.23202 -0.163629
upperback 0.482174 3.04064 1.52201
thorax -5.95321 1.51909 1.19179
lowerneck -15.7336 -7.41704 -11.8307
upperneck 15.1104 -9.30284 10.3832
head 8.33878 -4.14721 4.26429
rclavicle 5.12864e-014 -6.55989e-015
rhumerus -29.3059 -7.86607 -82.2847
rradius 52.0796
rwrist -2.71522
rhand -17.1336 14.6592
rfingers 7.12502
rthumb 9.10643 -15.1242
lclavicle 5.12864e-014 -6.55989e-015
lhumerus -42.3173 27.2402 62.5562
lradius 34.9607
lwrist -2.35594
lhand -26.008 24.2245
lfingers 7.12502
lthumb 0.537983 54.2036
rfemur -6.33888 5.76497 22.3006
rtibia 48.9373
rfoot -5.24169 -11.4242
rtoes 13.209
lfemur -23.8448 1.08878 -19.5848
ltibia 37.878
lfoot -13.385 0.211625
ltoes -5.07388
440
root 1.48695 17.3851 22.8939 3.61885 9.1943 -2.96874
lowerback 11.0146 2.17889 -0.187762
upperback 0.430456 2.96213 1.46136
thorax -5.81491 1.48108 1.166
lowerneck -15.749 -7.34031 -12.0433
upperneck 15.5254 -9.21426 10.5676
head 8.49016 -4.09805 4.37851
rclavicle -1.31695e-015 -1.41137e-014
rhumerus -29.5905 -8.12778 -82.3797
rradius 50.4975
rwrist -2.1383
rhand -17.1318 15.3522
rfingers 7.12502
rthumb 9.1082 -14.4311
lclavicle -1.31695e-015 -1.41137e-014
lhumerus -42.7459 27.6768 62.6685
lradius 34.0428
lwrist -1.88412
lhand -25.7366 24.7452
lfingers 7.12502
lthumb 0.800154 54.7234
rfemur -6.49248 5.38033 21.6875
rtibia 48.9867
rfoot -5.60472 -11.6587
rtoes 13.969
lfemur -23.1326 0.0770877 -19.7541
ltibia 37.1132
lfoot -13.1933 0.651569
ltoes 0.653653
441
root 1.51309 17.4078 22.9921 3.58797 9.02119 -2.99
lowerback 10.7319 2.07391 -0.0829632
upperback 0.339616 2.83413 1.44066
thorax -5.74241 1.41581 1.11416
lowerneck -15.6512 -7.16923 -12.0368
upperneck 15.923 -9.04703 10.6892
head 8.59164 -4.00868 4.45037
rclavicle -3.60297e-015 8.94531e-015
rhumerus -30.1286 -8.5759 -82.5363
rradius 49.3714
rwrist -1.14019
rhand -16.823 14.7169
rfingers 7.12502
rthumb 9.4061 -15.0532
lclavicle -3.60297e-015 8.94531e-015
lhumerus -43.329 27.6781 62.8158
lradius 33.3042
lwrist -0.987469
lhand -25.3931 25.2653
lfingers 7.12502
lthumb 1.13194 55.242
rfemur -6.69881 5.04354 21.4128
rtibia 49.0641
rfoot -6.26694 -12.232
rtoes 16.5941
lfemur -21.9757 -0.780332 -19.7238
ltibia 36.2732
lfoot -13.2185 1.70769
ltoes 3.24094
